<svg xmlns="http://www.w3.org/2000/svg" xml:space="preserve" width="678.849" height="278.357" fill-rule="evenodd" clip-rule="evenodd" image-rendering="optimizeQuality" shape-rendering="geometricPrecision" text-rendering="geometricPrecision" viewBox="0 0 179.612 73.649"><path fill="#0093dd" d="M168.548 37.417v3.33q-3.704-2.522-7.33-2.522-3.94 0-6.363 2.68-1.517 1.674-2.069 3.684-.69 2.424-.69 5.36 0 6.048 2.72 9.003 2.285 2.503 6.009 2.503 2.167 0 4.157-1.123V49.83q0-.729-.158-1.3h4.69q-.158.61-.158 1.3v10.344q.02.906.256 1.616-3.625 1.182-5.3 1.517-1.655.335-3.98.335-4.197 0-6.856-1.498-3.192-1.793-4.788-5.26-1.4-3.035-1.4-6.995 0-7.034 4.375-10.836 3.527-3.094 9.359-3.094 3.546 0 7.526 1.458m-36.194 14.265v10.265q0 .572.197 1.3h-4.866q.177-.61.177-1.3V37.673q0-.729-.177-1.32h8.61q3.152 0 5.34 1.261 3.349 1.97 3.349 6.167 0 4.65-4.079 6.7-2.384 1.201-5.694 1.201zm0-2.069h2.404q1.97 0 3.172-.709 1.143-.69 1.813-2.05t.67-3.014q0-2.561-1.419-4.019-1.399-1.478-3.862-1.478h-2.778zM118.07 63.248V60.37q-1.123 1.537-2.168 2.207-1.655 1.044-4.157 1.044-3.37 0-5.182-1.911-1.497-1.576-1.497-4.552V43.525q0-.67-.158-1.28h4.433q-.157.551-.157 1.28v13.181q0 1.695.808 2.7 1.063 1.28 3.191 1.28 2.148 0 3.468-1.221 1.34-1.242 1.34-3.212V43.525q0-.69-.158-1.28h4.433q-.157.512-.157 1.28v18.422q0 .63.157 1.3zM82.368 42.244h4.197v2.936q.946-1.478 1.911-2.167 1.813-1.261 4.59-1.261 3.587 0 5.439 2.187 1.182 1.399 1.182 3.901v14.107q0 .65.158 1.3H95.41q.158-.492.158-1.3V48.451q0-1.793-1.044-2.778t-2.975-.985q-2.404 0-3.626 1.34-1.28 1.418-1.28 3.644v12.275q0 .69.157 1.3h-4.433q.158-.57.158-1.3V43.525q0-.67-.158-1.28zm-5.792-4.827v3.33q-3.704-2.522-7.33-2.522-3.94 0-6.364 2.68-1.517 1.674-2.069 3.684-.69 2.424-.69 5.36 0 6.048 2.72 9.003 2.285 2.503 6.01 2.503 2.166 0 4.156-1.123V49.83q0-.729-.157-1.3h4.69q-.159.61-.159 1.3v10.344q.02.906.257 1.616-3.626 1.182-5.3 1.517-1.656.335-3.98.335-4.197 0-6.857-1.498-3.192-1.793-4.788-5.26-1.399-3.035-1.399-6.995 0-7.034 4.374-10.836 3.527-3.094 9.36-3.094 3.546 0 7.526 1.458M10 35.893h2.839v-8.545c0-9.58 7.768-17.348 17.347-17.348s17.348 7.769 17.348 17.348v8.46l-.122.085-.026.017-.003.002-.003.002-.003.002-.014.009-.015.01-.003.003-.017.011-.008.005-.004.003-.008.005-.002.002-.01.007-.01.007-.014.009-.007.004-.006.004-.005.003-.016.01-.015.01v.001l-.02.013-.004.003-.024.016-.002.001-.01.007-.005.002-.03.02-.006.004-.007.004-.003.002-.002.002-.016.01-.002.001-.001.001-.019.012-.004.003-.006.003-.006.004-.004.003-.01.006-.009.006-.01.006h-.002l-.009.006-.003.002-.007.005-.005.002-.005.004-.006.004-.004.002-.052.033-.011.007-.003.001-.029.018-.002.001-.032.02-.003.002-.009.005-.009.006h-.001l-.008.005-.008.005h-.001l-.004.003-.014.009-.007.004-.01.007-.032.018-.03.018-.032.018-.03.019-.064.036-.032.019-.031.018-.014.008-.083.048-.032.019-.033.018-.032.019-.043.025-.056.031-.033.019-.13.073-.005.003-.034.018-.034.02-.008.004-.046.025-.101.056-.048.026-.148.08-.013.007-.023.012-.072.039-.037.019-.006.003-.067.035-.037.02-.01.005-.064.034-.038.02-.034.017-.142.073-.038.02-.17.085-.166.081-.055.027q-.09.045-.183.089c-3.445 1.645-8.97 3.396-19.458 4.15-7.514.539-12.068 3.846-15.04 7.837V35.893zm10.83 0h18.713v-8.545a9.358 9.358 0 0 0-18.714 0zm24.24 1.347-.169.086m-6.856-23.13a14.8 14.8 0 0 0-7.605-2.093c-7.617 0-13.897 5.74-14.75 13.128 2.232-6.987 8.779-12.048 16.506-12.048 2.052 0 4.021.358 5.849 1.014zm12.328 24.967V63.65h-34.54c3.807-2.117 6.644-1.902 11.344-1.753 6.4.202 13.473-2.479 16.95-6.03 3.48-3.55-.314-.84-4.252.16-3.938.998-11.558 1.104-16.652-.235 16.043.219 22.287-4.97 25.833-9.618s-1.534-.807-4.824.795c-3.29 1.604-9.029 2.75-15.338 1.914 9.55-.02 16.818-4.793 21.479-9.719z" font-family="CastleT" font-size="40.351" font-weight="400"/></svg>
